<svg xmlns="http://www.w3.org/2000/svg" viewBox="0 0 220 220" role="img" aria-label="MModel mark">
  <defs>
    <linearGradient id="openmmodel-mark-gradient" x1="24" y1="24" x2="196" y2="196" gradientUnits="userSpaceOnUse">
      <stop offset="0" stop-color="#88c4ff" />
      <stop offset="0.46" stop-color="#4f8cff" />
      <stop offset="1" stop-color="#3157f4" />
    </linearGradient>
    <filter id="openmmodel-soft-shadow" x="-20%" y="-20%" width="140%" height="140%">
      <feDropShadow dx="0" dy="14" stdDeviation="16" flood-color="#1f4ed8" flood-opacity="0.16" />
    </filter>
  </defs>
  <rect width="220" height="220" fill="none" />
  <g filter="url(#openmmodel-soft-shadow)">
    <path
      d="M24 165V56c0-17 14-31 31-31 10 0 20 5 26 13l29 40 29-40c6-8 16-13 26-13 17 0 31 14 31 31v109c0 17-14 31-31 31s-31-14-31-31V119l-7 10c-4 7-10 12-17 12s-13-5-17-12l-7-10v46c0 17-14 31-31 31s-31-14-31-31Z"
      fill="url(#openmmodel-mark-gradient)"
    />
    <path
      d="M59 54v101m102-101v101"
      fill="none"
      stroke="#ffffff"
      stroke-width="10"
      stroke-linecap="round"
      opacity="0.34"
    />
  </g>
</svg>
